<?xml version="1.0" standalone="no"?>
<!DOCTYPE svg PUBLIC "-//W3C//DTD SVG 20010904//EN"
 "http://www.w3.org/TR/2001/REC-SVG-20010904/DTD/svg10.dtd">
<svg version="1.0" xmlns="http://www.w3.org/2000/svg"
 width="551.000000pt" height="559.000000pt" viewBox="0 0 551.000000 559.000000"
 preserveAspectRatio="xMidYMid meet">

<g transform="translate(0.000000,559.000000) scale(0.100000,-0.100000)"
fill="#3F51B5" stroke="none">
<path d="M2403 5077 l-863 -392 0 -742 0 -743 -307 -2 -308 -3 -3 -667 -2
-668 310 0 310 0 0 -155 c0 -85 -2 -155 -5 -155 -3 0 -68 32 -146 70 -139 70
-141 71 -164 53 -61 -46 -1043 -818 -1041 -819 12 -12 1547 -707 1561 -707 11
-1 259 171 553 382 l532 383 0 474 0 474 330 0 330 0 0 -474 0 -474 551 -377
c303 -208 558 -378 566 -379 14 -1 762 1137 763 1160 0 6 -139 104 -310 218
l-310 206 -2 1407 -3 1408 -724 457 c-399 252 -732 458 -740 457 -9 0 -404
-177 -878 -392z m764 -954 l323 -188 0 -362 0 -363 -330 0 -330 0 0 550 c0
303 3 550 7 550 3 0 152 -84 330 -187z m-871 -444 c148 -26 318 -146 384 -270
43 -81 53 -181 22 -219 l-20 -25 -33 68 c-18 37 -39 67 -46 67 -17 0 -17 -5 8
-79 21 -61 19 -92 -4 -59 -7 10 -32 54 -57 100 -54 98 -131 181 -197 210 -31
14 -76 23 -128 26 -223 12 -387 -151 -411 -406 l-7 -72 672 0 c369 0 671 -3
671 -7 0 -4 -10 -17 -22 -30 l-21 -23 -931 0 -930 0 -23 22 c-13 12 -23 25
-23 30 0 4 95 8 210 8 l210 0 0 41 c0 119 46 282 107 377 116 182 349 281 569
241z m723 -805 c-46 -51 -178 -142 -271 -187 -177 -87 -390 -131 -607 -125
l-122 3 28 -22 c16 -13 42 -23 61 -23 27 0 32 -4 32 -24 0 -14 10 -30 25 -40
l25 -16 0 40 c0 38 2 40 30 40 30 0 30 0 30 -59 l0 -59 80 -56 c102 -72 133
-117 138 -203 8 -116 -53 -212 -166 -263 l-52 -24 0 -63 0 -63 -30 0 -30 0 0
249 0 249 -25 16 -25 16 0 -265 0 -265 -30 0 c-25 0 -30 4 -30 25 0 25 -1 25
-29 11 -15 -8 -51 -40 -79 -71 -51 -56 -51 -56 -58 -30 -10 40 2 119 26 165
15 29 39 52 80 78 l59 37 1 177 c0 174 0 178 -22 189 -96 50 -309 242 -355
319 -9 16 -43 40 -82 59 -66 33 -230 139 -286 186 l-30 25 869 0 869 0 -24
-26z m-713 -1222 c28 -10 62 -27 75 -36 22 -15 9 -16 -209 -16 -155 0 -231 3
-227 10 9 15 79 49 122 60 56 14 181 5 239 -18z m178 -134 c9 -12 16 -26 16
-30 0 -7 -650 1 -658 8 -2 1 1 12 8 23 10 21 17 21 315 21 303 0 304 0 319
-22z"/>
<path d="M2070 3614 c-225 -60 -365 -250 -387 -526 l-6 -78 35 0 34 0 12 88
c21 158 65 254 155 340 83 78 189 122 293 122 68 0 170 -32 222 -70 51 -37 57
-37 79 -4 16 25 16 27 -8 45 -107 84 -292 120 -429 83z"/>
<path d="M2612 3384 c4 -33 32 -54 49 -37 18 18 -5 63 -31 63 -17 0 -21 -5
-18 -26z"/>
<path d="M1798 2603 c15 -27 133 -136 205 -189 33 -25 108 -74 168 -109 118
-72 153 -106 169 -166 14 -51 -13 -118 -59 -145 -23 -13 -31 -26 -31 -46 0
-22 4 -26 18 -21 43 16 95 60 119 100 22 37 25 53 21 106 -3 45 -10 72 -26 95
-13 17 -85 73 -160 123 -136 91 -188 130 -273 201 -24 20 -63 41 -87 48 -24 6
-50 14 -59 17 -13 5 -13 2 -5 -14z"/>
<path d="M2250 2108 l1 -73 19 24 c11 13 20 32 20 43 0 19 -26 78 -35 78 -3 0
-5 -33 -5 -72z"/>
<path d="M2039 1855 c-57 -38 -59 -59 -4 -33 29 14 45 29 45 40 0 23 2 23 -41
-7z"/>
</g>
</svg>
